<svg xmlns="http://www.w3.org/2000/svg" xmlns:xlink="http://www.w3.org/1999/xlink" width="1920" height="1080" viewBox="0 0 1920 1080">
  <defs>
    <clipPath id="clip-Web_1920_1">
      <rect width="1920" height="1080"/>
    </clipPath>
  </defs>
  <g id="Web_1920_1" data-name="Web 1920 – 1" clip-path="url(#clip-Web_1920_1)">
    <rect width="1920" height="1080" fill="#fff"/>
    <ellipse id="Elipse_2" data-name="Elipse 2" cx="280.5" cy="297.5" rx="280.5" ry="297.5" transform="translate(-470 161)" fill="#fb0" opacity="0.07"/>
    <circle id="Elipse_1" data-name="Elipse 1" cx="233" cy="233" r="233" transform="translate(1611 -113)" fill="#fb0" opacity="0.15"/>
    <path id="Icon_awesome-html5" data-name="Icon awesome-html5" d="M0,2.25,2.454,30.08l11.011,3.67,11.081-3.67L27,2.25Zm21.67,8.993H8.747l.288,3.473H21.382l-.956,10.434-6.884,1.9v.021h-.077l-6.94-1.92L6.1,19.821H9.457L9.7,22.5l3.762,1.02,3.776-1.02.422-4.373H5.927l-.9-10.237H21.98l-.309,3.354Z" transform="translate(412.327 633.484) rotate(-17)" fill="#fb0" opacity="0.4"/>
    <path id="Icon_awesome-html5-2" data-name="Icon awesome-html5" d="M0,2.25,2.454,30.08l11.011,3.67,11.081-3.67L27,2.25Zm21.67,8.993H8.747l.288,3.473H21.382l-.956,10.434-6.884,1.9v.021h-.077l-6.94-1.92L6.1,19.821H9.457L9.7,22.5l3.762,1.02,3.776-1.02.422-4.373H5.927l-.9-10.237H21.98l-.309,3.354Z" transform="matrix(0.974, 0.225, -0.225, 0.974, 525.395, 980.174)" fill="#fb0" opacity="0.4"/>
    <path id="Icon_awesome-html5-3" data-name="Icon awesome-html5" d="M0,2.25,2.454,30.08l11.011,3.67,11.081-3.67L27,2.25Zm21.67,8.993H8.747l.288,3.473H21.382l-.956,10.434-6.884,1.9v.021h-.077l-6.94-1.92L6.1,19.821H9.457L9.7,22.5l3.762,1.02,3.776-1.02.422-4.373H5.927l-.9-10.237H21.98l-.309,3.354Z" transform="translate(842.076 738.481) rotate(-3)" fill="#fb0" opacity="0.4"/>
    <path id="Icon_awesome-html5-4" data-name="Icon awesome-html5" d="M0,2.25,2.454,30.08l11.011,3.67,11.081-3.67L27,2.25Zm21.67,8.993H8.747l.288,3.473H21.382l-.956,10.434-6.884,1.9v.021h-.077l-6.94-1.92L6.1,19.821H9.457L9.7,22.5l3.762,1.02,3.776-1.02.422-4.373H5.927l-.9-10.237H21.98l-.309,3.354Z" transform="translate(1487.046 951.551) rotate(-14)" fill="#fb0" opacity="0.4"/>
    <path id="Icon_awesome-html5-5" data-name="Icon awesome-html5" d="M0,2.25,2.454,30.08l11.011,3.67,11.081-3.67L27,2.25Zm21.67,8.993H8.747l.288,3.473H21.382l-.956,10.434-6.884,1.9v.021h-.077l-6.94-1.92L6.1,19.821H9.457L9.7,22.5l3.762,1.02,3.776-1.02.422-4.373H5.927l-.9-10.237H21.98l-.309,3.354Z" transform="translate(1239.498 715.478) rotate(139)" fill="#fb0" opacity="0.4"/>
    <path id="Icon_awesome-html5-6" data-name="Icon awesome-html5" d="M0,2.25,2.454,30.08l11.011,3.67,11.081-3.67L27,2.25Zm21.67,8.993H8.747l.288,3.473H21.382l-.956,10.434-6.884,1.9v.021h-.077l-6.94-1.92L6.1,19.821H9.457L9.7,22.5l3.762,1.02,3.776-1.02.422-4.373H5.927l-.9-10.237H21.98l-.309,3.354Z" transform="matrix(0.602, 0.799, -0.799, 0.602, 1127.751, 965.136)" fill="#fb0" opacity="0.4"/>
    <path id="Icon_awesome-html5-7" data-name="Icon awesome-html5" d="M0,2.25,2.454,30.08l11.011,3.67,11.081-3.67L27,2.25Zm21.67,8.993H8.747l.288,3.473H21.382l-.956,10.434-6.884,1.9v.021h-.077l-6.94-1.92L6.1,19.821H9.457L9.7,22.5l3.762,1.02,3.776-1.02.422-4.373H5.927l-.9-10.237H21.98l-.309,3.354Z" transform="matrix(0.875, -0.485, 0.485, 0.875, 1590.966, 703.552)" fill="#fb0" opacity="0.4"/>
    <path id="Icon_awesome-html5-8" data-name="Icon awesome-html5" d="M0,2.25,2.454,30.08l11.011,3.67,11.081-3.67L27,2.25Zm21.67,8.993H8.747l.288,3.473H21.382l-.956,10.434-6.884,1.9v.021h-.077l-6.94-1.92L6.1,19.821H9.457L9.7,22.5l3.762,1.02,3.776-1.02.422-4.373H5.927l-.9-10.237H21.98l-.309,3.354Z" transform="translate(1375.076 354.481) rotate(-3)" fill="#fb0" opacity="0.4"/>
    <path id="Icon_awesome-html5-9" data-name="Icon awesome-html5" d="M0,2.25,2.454,30.08l11.011,3.67,11.081-3.67L27,2.25Zm21.67,8.993H8.747l.288,3.473H21.382l-.956,10.434-6.884,1.9v.021h-.077l-6.94-1.92L6.1,19.821H9.457L9.7,22.5l3.762,1.02,3.776-1.02.422-4.373H5.927l-.9-10.237H21.98l-.309,3.354Z" transform="matrix(0.588, -0.809, 0.809, 0.588, 938.003, 429.092)" fill="#fb0" opacity="0.4"/>
    <path id="Icon_awesome-html5-10" data-name="Icon awesome-html5" d="M0,2.25,2.454,30.08l11.011,3.67,11.081-3.67L27,2.25Zm21.67,8.993H8.747l.288,3.473H21.382l-.956,10.434-6.884,1.9v.021h-.077l-6.94-1.92L6.1,19.821H9.457L9.7,22.5l3.762,1.02,3.776-1.02.422-4.373H5.927l-.9-10.237H21.98l-.309,3.354Z" transform="translate(601.699 235.296) rotate(76)" fill="#fb0" opacity="0.4"/>
    <path id="Icon_awesome-css3-alt" data-name="Icon awesome-css3-alt" d="M0,2.25,2.454,30.08,13.5,33.75l11.046-3.67L27,2.25ZM22.015,7.875,21.677,11.2,13.57,14.667l-.021.007h7.84l-.9,10.308L13.584,27,6.638,24.947l-.45-5.2H9.626l.225,2.693,3.7.935L17.4,22.3l.26-4.331L5.963,17.93v-.007l-.014.007L5.7,14.674l7.882-3.284.457-.19H5.393L4.985,7.875Z" transform="translate(205.4 143)" fill="#fb0" opacity="0.4"/>
    <path id="Icon_awesome-css3-alt-2" data-name="Icon awesome-css3-alt" d="M0,2.25,2.454,30.08,13.5,33.75l11.046-3.67L27,2.25ZM22.015,7.875,21.677,11.2,13.57,14.667l-.021.007h7.84l-.9,10.308L13.584,27,6.638,24.947l-.45-5.2H9.626l.225,2.693,3.7.935L17.4,22.3l.26-4.331L5.963,17.93v-.007l-.014.007L5.7,14.674l7.882-3.284.457-.19H5.393L4.985,7.875Z" transform="translate(257.884 502.976) rotate(16)" fill="#fb0" opacity="0.4"/>
    <path id="Icon_awesome-css3-alt-3" data-name="Icon awesome-css3-alt" d="M0,2.25,2.454,30.08,13.5,33.75l11.046-3.67L27,2.25ZM22.015,7.875,21.677,11.2,13.57,14.667l-.021.007h7.84l-.9,10.308L13.584,27,6.638,24.947l-.45-5.2H9.626l.225,2.693,3.7.935L17.4,22.3l.26-4.331L5.963,17.93v-.007l-.014.007L5.7,14.674l7.882-3.284.457-.19H5.393L4.985,7.875Z" transform="translate(214.79 957.482) rotate(99)" fill="#fb0" opacity="0.4"/>
    <path id="Icon_awesome-css3-alt-4" data-name="Icon awesome-css3-alt" d="M0,2.25,2.454,30.08,13.5,33.75l11.046-3.67L27,2.25ZM22.015,7.875,21.677,11.2,13.57,14.667l-.021.007h7.84l-.9,10.308L13.584,27,6.638,24.947l-.45-5.2H9.626l.225,2.693,3.7.935L17.4,22.3l.26-4.331L5.963,17.93v-.007l-.014.007L5.7,14.674l7.882-3.284.457-.19H5.393L4.985,7.875Z" transform="matrix(0.951, 0.309, -0.309, 0.951, 1722.623, 888.709)" fill="#fb0" opacity="0.4"/>
    <path id="Icon_awesome-css3-alt-5" data-name="Icon awesome-css3-alt" d="M0,2.25,2.454,30.08,13.5,33.75l11.046-3.67L27,2.25ZM22.015,7.875,21.677,11.2,13.57,14.667l-.021.007h7.84l-.9,10.308L13.584,27,6.638,24.947l-.45-5.2H9.626l.225,2.693,3.7.935L17.4,22.3l.26-4.331L5.963,17.93v-.007l-.014.007L5.7,14.674l7.882-3.284.457-.19H5.393L4.985,7.875Z" transform="matrix(0.899, -0.438, 0.438, 0.899, 1674.876, 467.74)" fill="#fb0" opacity="0.4"/>
    <path id="Icon_awesome-css3-alt-6" data-name="Icon awesome-css3-alt" d="M0,2.25,2.454,30.08,13.5,33.75l11.046-3.67L27,2.25ZM22.015,7.875,21.677,11.2,13.57,14.667l-.021.007h7.84l-.9,10.308L13.584,27,6.638,24.947l-.45-5.2H9.626l.225,2.693,3.7.935L17.4,22.3l.26-4.331L5.963,17.93v-.007l-.014.007L5.7,14.674l7.882-3.284.457-.19H5.393L4.985,7.875Z" transform="matrix(0.995, 0.105, -0.105, 0.995, 1397.356, 576.687)" fill="#fb0" opacity="0.4"/>
    <path id="Icon_awesome-css3-alt-7" data-name="Icon awesome-css3-alt" d="M0,2.25,2.454,30.08,13.5,33.75l11.046-3.67L27,2.25ZM22.015,7.875,21.677,11.2,13.57,14.667l-.021.007h7.84l-.9,10.308L13.584,27,6.638,24.947l-.45-5.2H9.626l.225,2.693,3.7.935L17.4,22.3l.26-4.331L5.963,17.93v-.007l-.014.007L5.7,14.674l7.882-3.284.457-.19H5.393L4.985,7.875Z" transform="matrix(-0.391, 0.921, -0.921, -0.391, 1244.744, 88.606)" fill="#fb0" opacity="0.4"/>
    <path id="Icon_awesome-css3-alt-8" data-name="Icon awesome-css3-alt" d="M0,2.25,2.454,30.08,13.5,33.75l11.046-3.67L27,2.25ZM22.015,7.875,21.677,11.2,13.57,14.667l-.021.007h7.84l-.9,10.308L13.584,27,6.638,24.947l-.45-5.2H9.626l.225,2.693,3.7.935L17.4,22.3l.26-4.331L5.963,17.93v-.007l-.014.007L5.7,14.674l7.882-3.284.457-.19H5.393L4.985,7.875Z" transform="matrix(0.799, 0.602, -0.602, 0.799, 883.951, 135.5)" fill="#fb0" opacity="0.4"/>
    <path id="Icon_awesome-css3-alt-9" data-name="Icon awesome-css3-alt" d="M0,2.25,2.454,30.08,13.5,33.75l11.046-3.67L27,2.25ZM22.015,7.875,21.677,11.2,13.57,14.667l-.021.007h7.84l-.9,10.308L13.584,27,6.638,24.947l-.45-5.2H9.626l.225,2.693,3.7.935L17.4,22.3l.26-4.331L5.963,17.93v-.007l-.014.007L5.7,14.674l7.882-3.284.457-.19H5.393L4.985,7.875Z" transform="matrix(0.999, 0.052, -0.052, 0.999, 660.361, 500.318)" fill="#fb0" opacity="0.4"/>
    <path id="Icon_awesome-css3-alt-10" data-name="Icon awesome-css3-alt" d="M0,2.25,2.454,30.08,13.5,33.75l11.046-3.67L27,2.25ZM22.015,7.875,21.677,11.2,13.57,14.667l-.021.007h7.84l-.9,10.308L13.584,27,6.638,24.947l-.45-5.2H9.626l.225,2.693,3.7.935L17.4,22.3l.26-4.331L5.963,17.93v-.007l-.014.007L5.7,14.674l7.882-3.284.457-.19H5.393L4.985,7.875Z" transform="matrix(0.946, -0.326, 0.326, 0.946, 816.275, 978.376)" fill="#fb0" opacity="0.4"/>
    <path id="Icon_simple-javascript" data-name="Icon simple-javascript" d="M0,0H36V36H0ZM33.051,27.414c-.263-1.642-1.332-3.023-4.5-4.309-1.1-.517-2.331-.878-2.7-1.71a1.771,1.771,0,0,1-.069-1.058,1.719,1.719,0,0,1,2.273-.99,2.44,2.44,0,0,1,1.464,1.35c1.551-1.014,1.551-1.014,2.632-1.687a6.191,6.191,0,0,0-.879-1.17,5.038,5.038,0,0,0-4.251-1.551l-1.058.133A4.835,4.835,0,0,0,23.4,17.929a4.706,4.706,0,0,0,.854,6.706c2.048,1.53,5.042,1.866,5.424,3.307.36,1.755-1.305,2.318-2.949,2.115a3.949,3.949,0,0,1-2.632-2L21.35,29.631a6.066,6.066,0,0,0,1.215,1.663c2.61,2.634,9.135,2.5,10.306-1.506a5.077,5.077,0,0,0,.111-2.475l.069.1ZM19.576,16.546H16.2c0,2.907-.014,5.8-.014,8.708,0,1.848.094,3.545-.207,4.066-.495,1.034-1.77.9-2.349.72a2.894,2.894,0,0,1-1.245-1.282,1.287,1.287,0,0,0-.191-.294L9.462,30.151a5.306,5.306,0,0,0,1.986,2.275,6.6,6.6,0,0,0,4.81.607,4.213,4.213,0,0,0,2.716-2.117c.765-1.4.6-3.1.6-5.019.018-3.081,0-6.163,0-9.269l.006-.084Z" transform="matrix(0.951, -0.309, 0.309, 0.951, 419.319, 435.443)" fill="#fb0" opacity="0.4"/>
    <path id="Icon_simple-javascript-2" data-name="Icon simple-javascript" d="M0,0H36V36H0ZM33.051,27.414c-.263-1.642-1.332-3.023-4.5-4.309-1.1-.517-2.331-.878-2.7-1.71a1.771,1.771,0,0,1-.069-1.058,1.719,1.719,0,0,1,2.273-.99,2.44,2.44,0,0,1,1.464,1.35c1.551-1.014,1.551-1.014,2.632-1.687a6.191,6.191,0,0,0-.879-1.17,5.038,5.038,0,0,0-4.251-1.551l-1.058.133A4.835,4.835,0,0,0,23.4,17.929a4.706,4.706,0,0,0,.854,6.706c2.048,1.53,5.042,1.866,5.424,3.307.36,1.755-1.305,2.318-2.949,2.115a3.949,3.949,0,0,1-2.632-2L21.35,29.631a6.066,6.066,0,0,0,1.215,1.663c2.61,2.634,9.135,2.5,10.306-1.506a5.077,5.077,0,0,0,.111-2.475l.069.1ZM19.576,16.546H16.2c0,2.907-.014,5.8-.014,8.708,0,1.848.094,3.545-.207,4.066-.495,1.034-1.77.9-2.349.72a2.894,2.894,0,0,1-1.245-1.282,1.287,1.287,0,0,0-.191-.294L9.462,30.151a5.306,5.306,0,0,0,1.986,2.275,6.6,6.6,0,0,0,4.81.607,4.213,4.213,0,0,0,2.716-2.117c.765-1.4.6-3.1.6-5.019.018-3.081,0-6.163,0-9.269l.006-.084Z" transform="matrix(0.978, 0.208, -0.208, 0.978, 241.136, 750.651)" fill="#fb0" opacity="0.4"/>
    <path id="Icon_simple-javascript-3" data-name="Icon simple-javascript" d="M0,0H36V36H0ZM33.051,27.414c-.263-1.642-1.332-3.023-4.5-4.309-1.1-.517-2.331-.878-2.7-1.71a1.771,1.771,0,0,1-.069-1.058,1.719,1.719,0,0,1,2.273-.99,2.44,2.44,0,0,1,1.464,1.35c1.551-1.014,1.551-1.014,2.632-1.687a6.191,6.191,0,0,0-.879-1.17,5.038,5.038,0,0,0-4.251-1.551l-1.058.133A4.835,4.835,0,0,0,23.4,17.929a4.706,4.706,0,0,0,.854,6.706c2.048,1.53,5.042,1.866,5.424,3.307.36,1.755-1.305,2.318-2.949,2.115a3.949,3.949,0,0,1-2.632-2L21.35,29.631a6.066,6.066,0,0,0,1.215,1.663c2.61,2.634,9.135,2.5,10.306-1.506a5.077,5.077,0,0,0,.111-2.475l.069.1ZM19.576,16.546H16.2c0,2.907-.014,5.8-.014,8.708,0,1.848.094,3.545-.207,4.066-.495,1.034-1.77.9-2.349.72a2.894,2.894,0,0,1-1.245-1.282,1.287,1.287,0,0,0-.191-.294L9.462,30.151a5.306,5.306,0,0,0,1.986,2.275,6.6,6.6,0,0,0,4.81.607,4.213,4.213,0,0,0,2.716-2.117c.765-1.4.6-3.1.6-5.019.018-3.081,0-6.163,0-9.269l.006-.084Z" transform="translate(602.639 796.383) rotate(2)" fill="#fb0" opacity="0.4"/>
    <path id="Icon_simple-javascript-4" data-name="Icon simple-javascript" d="M0,0H36V36H0ZM33.051,27.414c-.263-1.642-1.332-3.023-4.5-4.309-1.1-.517-2.331-.878-2.7-1.71a1.771,1.771,0,0,1-.069-1.058,1.719,1.719,0,0,1,2.273-.99,2.44,2.44,0,0,1,1.464,1.35c1.551-1.014,1.551-1.014,2.632-1.687a6.191,6.191,0,0,0-.879-1.17,5.038,5.038,0,0,0-4.251-1.551l-1.058.133A4.835,4.835,0,0,0,23.4,17.929a4.706,4.706,0,0,0,.854,6.706c2.048,1.53,5.042,1.866,5.424,3.307.36,1.755-1.305,2.318-2.949,2.115a3.949,3.949,0,0,1-2.632-2L21.35,29.631a6.066,6.066,0,0,0,1.215,1.663c2.61,2.634,9.135,2.5,10.306-1.506a5.077,5.077,0,0,0,.111-2.475l.069.1ZM19.576,16.546H16.2c0,2.907-.014,5.8-.014,8.708,0,1.848.094,3.545-.207,4.066-.495,1.034-1.77.9-2.349.72a2.894,2.894,0,0,1-1.245-1.282,1.287,1.287,0,0,0-.191-.294L9.462,30.151a5.306,5.306,0,0,0,1.986,2.275,6.6,6.6,0,0,0,4.81.607,4.213,4.213,0,0,0,2.716-2.117c.765-1.4.6-3.1.6-5.019.018-3.081,0-6.163,0-9.269l.006-.084Z" transform="matrix(0.951, -0.309, 0.309, 0.951, 1059.319, 567.443)" fill="#fb0" opacity="0.4"/>
    <path id="Icon_simple-javascript-5" data-name="Icon simple-javascript" d="M0,0H36V36H0ZM33.051,27.414c-.263-1.642-1.332-3.023-4.5-4.309-1.1-.517-2.331-.878-2.7-1.71a1.771,1.771,0,0,1-.069-1.058,1.719,1.719,0,0,1,2.273-.99,2.44,2.44,0,0,1,1.464,1.35c1.551-1.014,1.551-1.014,2.632-1.687a6.191,6.191,0,0,0-.879-1.17,5.038,5.038,0,0,0-4.251-1.551l-1.058.133A4.835,4.835,0,0,0,23.4,17.929a4.706,4.706,0,0,0,.854,6.706c2.048,1.53,5.042,1.866,5.424,3.307.36,1.755-1.305,2.318-2.949,2.115a3.949,3.949,0,0,1-2.632-2L21.35,29.631a6.066,6.066,0,0,0,1.215,1.663c2.61,2.634,9.135,2.5,10.306-1.506a5.077,5.077,0,0,0,.111-2.475l.069.1ZM19.576,16.546H16.2c0,2.907-.014,5.8-.014,8.708,0,1.848.094,3.545-.207,4.066-.495,1.034-1.77.9-2.349.72a2.894,2.894,0,0,1-1.245-1.282,1.287,1.287,0,0,0-.191-.294L9.462,30.151a5.306,5.306,0,0,0,1.986,2.275,6.6,6.6,0,0,0,4.81.607,4.213,4.213,0,0,0,2.716-2.117c.765-1.4.6-3.1.6-5.019.018-3.081,0-6.163,0-9.269l.006-.084Z" transform="translate(1297.659 922.736) rotate(16)" fill="#fb0" opacity="0.4"/>
    <path id="Icon_simple-javascript-6" data-name="Icon simple-javascript" d="M0,0H36V36H0ZM33.051,27.414c-.263-1.642-1.332-3.023-4.5-4.309-1.1-.517-2.331-.878-2.7-1.71a1.771,1.771,0,0,1-.069-1.058,1.719,1.719,0,0,1,2.273-.99,2.44,2.44,0,0,1,1.464,1.35c1.551-1.014,1.551-1.014,2.632-1.687a6.191,6.191,0,0,0-.879-1.17,5.038,5.038,0,0,0-4.251-1.551l-1.058.133A4.835,4.835,0,0,0,23.4,17.929a4.706,4.706,0,0,0,.854,6.706c2.048,1.53,5.042,1.866,5.424,3.307.36,1.755-1.305,2.318-2.949,2.115a3.949,3.949,0,0,1-2.632-2L21.35,29.631a6.066,6.066,0,0,0,1.215,1.663c2.61,2.634,9.135,2.5,10.306-1.506a5.077,5.077,0,0,0,.111-2.475l.069.1ZM19.576,16.546H16.2c0,2.907-.014,5.8-.014,8.708,0,1.848.094,3.545-.207,4.066-.495,1.034-1.77.9-2.349.72a2.894,2.894,0,0,1-1.245-1.282,1.287,1.287,0,0,0-.191-.294L9.462,30.151a5.306,5.306,0,0,0,1.986,2.275,6.6,6.6,0,0,0,4.81.607,4.213,4.213,0,0,0,2.716-2.117c.765-1.4.6-3.1.6-5.019.018-3.081,0-6.163,0-9.269l.006-.084Z" transform="translate(1488.328 471.94) rotate(7)" fill="#fb0" opacity="0.4"/>
    <path id="Icon_simple-javascript-7" data-name="Icon simple-javascript" d="M0,0H36V36H0ZM33.051,27.414c-.263-1.642-1.332-3.023-4.5-4.309-1.1-.517-2.331-.878-2.7-1.71a1.771,1.771,0,0,1-.069-1.058,1.719,1.719,0,0,1,2.273-.99,2.44,2.44,0,0,1,1.464,1.35c1.551-1.014,1.551-1.014,2.632-1.687a6.191,6.191,0,0,0-.879-1.17,5.038,5.038,0,0,0-4.251-1.551l-1.058.133A4.835,4.835,0,0,0,23.4,17.929a4.706,4.706,0,0,0,.854,6.706c2.048,1.53,5.042,1.866,5.424,3.307.36,1.755-1.305,2.318-2.949,2.115a3.949,3.949,0,0,1-2.632-2L21.35,29.631a6.066,6.066,0,0,0,1.215,1.663c2.61,2.634,9.135,2.5,10.306-1.506a5.077,5.077,0,0,0,.111-2.475l.069.1ZM19.576,16.546H16.2c0,2.907-.014,5.8-.014,8.708,0,1.848.094,3.545-.207,4.066-.495,1.034-1.77.9-2.349.72a2.894,2.894,0,0,1-1.245-1.282,1.287,1.287,0,0,0-.191-.294L9.462,30.151a5.306,5.306,0,0,0,1.986,2.275,6.6,6.6,0,0,0,4.81.607,4.213,4.213,0,0,0,2.716-2.117c.765-1.4.6-3.1.6-5.019.018-3.081,0-6.163,0-9.269l.006-.084Z" transform="matrix(0.899, -0.438, 0.438, 0.899, 1476.931, 188.712)" fill="#fb0" opacity="0.4"/>
    <path id="Icon_simple-javascript-8" data-name="Icon simple-javascript" d="M0,0H36V36H0ZM33.051,27.414c-.263-1.642-1.332-3.023-4.5-4.309-1.1-.517-2.331-.878-2.7-1.71a1.771,1.771,0,0,1-.069-1.058,1.719,1.719,0,0,1,2.273-.99,2.44,2.44,0,0,1,1.464,1.35c1.551-1.014,1.551-1.014,2.632-1.687a6.191,6.191,0,0,0-.879-1.17,5.038,5.038,0,0,0-4.251-1.551l-1.058.133A4.835,4.835,0,0,0,23.4,17.929a4.706,4.706,0,0,0,.854,6.706c2.048,1.53,5.042,1.866,5.424,3.307.36,1.755-1.305,2.318-2.949,2.115a3.949,3.949,0,0,1-2.632-2L21.35,29.631a6.066,6.066,0,0,0,1.215,1.663c2.61,2.634,9.135,2.5,10.306-1.506a5.077,5.077,0,0,0,.111-2.475l.069.1ZM19.576,16.546H16.2c0,2.907-.014,5.8-.014,8.708,0,1.848.094,3.545-.207,4.066-.495,1.034-1.77.9-2.349.72a2.894,2.894,0,0,1-1.245-1.282,1.287,1.287,0,0,0-.191-.294L9.462,30.151a5.306,5.306,0,0,0,1.986,2.275,6.6,6.6,0,0,0,4.81.607,4.213,4.213,0,0,0,2.716-2.117c.765-1.4.6-3.1.6-5.019.018-3.081,0-6.163,0-9.269l.006-.084Z" transform="translate(1161.443 399.681) rotate(-108)" fill="#fb0" opacity="0.4"/>
    <path id="Icon_simple-javascript-9" data-name="Icon simple-javascript" d="M0,0H36V36H0ZM33.051,27.414c-.263-1.642-1.332-3.023-4.5-4.309-1.1-.517-2.331-.878-2.7-1.71a1.771,1.771,0,0,1-.069-1.058,1.719,1.719,0,0,1,2.273-.99,2.44,2.44,0,0,1,1.464,1.35c1.551-1.014,1.551-1.014,2.632-1.687a6.191,6.191,0,0,0-.879-1.17,5.038,5.038,0,0,0-4.251-1.551l-1.058.133A4.835,4.835,0,0,0,23.4,17.929a4.706,4.706,0,0,0,.854,6.706c2.048,1.53,5.042,1.866,5.424,3.307.36,1.755-1.305,2.318-2.949,2.115a3.949,3.949,0,0,1-2.632-2L21.35,29.631a6.066,6.066,0,0,0,1.215,1.663c2.61,2.634,9.135,2.5,10.306-1.506a5.077,5.077,0,0,0,.111-2.475l.069.1ZM19.576,16.546H16.2c0,2.907-.014,5.8-.014,8.708,0,1.848.094,3.545-.207,4.066-.495,1.034-1.77.9-2.349.72a2.894,2.894,0,0,1-1.245-1.282,1.287,1.287,0,0,0-.191-.294L9.462,30.151a5.306,5.306,0,0,0,1.986,2.275,6.6,6.6,0,0,0,4.81.607,4.213,4.213,0,0,0,2.716-2.117c.765-1.4.6-3.1.6-5.019.018-3.081,0-6.163,0-9.269l.006-.084Z" transform="matrix(0.857, -0.515, 0.515, 0.857, 742.3, 379.842)" fill="#fb0" opacity="0.4"/>
    <path id="Icon_simple-javascript-10" data-name="Icon simple-javascript" d="M0,0H36V36H0ZM33.051,27.414c-.263-1.642-1.332-3.023-4.5-4.309-1.1-.517-2.331-.878-2.7-1.71a1.771,1.771,0,0,1-.069-1.058,1.719,1.719,0,0,1,2.273-.99,2.44,2.44,0,0,1,1.464,1.35c1.551-1.014,1.551-1.014,2.632-1.687a6.191,6.191,0,0,0-.879-1.17,5.038,5.038,0,0,0-4.251-1.551l-1.058.133A4.835,4.835,0,0,0,23.4,17.929a4.706,4.706,0,0,0,.854,6.706c2.048,1.53,5.042,1.866,5.424,3.307.36,1.755-1.305,2.318-2.949,2.115a3.949,3.949,0,0,1-2.632-2L21.35,29.631a6.066,6.066,0,0,0,1.215,1.663c2.61,2.634,9.135,2.5,10.306-1.506a5.077,5.077,0,0,0,.111-2.475l.069.1ZM19.576,16.546H16.2c0,2.907-.014,5.8-.014,8.708,0,1.848.094,3.545-.207,4.066-.495,1.034-1.77.9-2.349.72a2.894,2.894,0,0,1-1.245-1.282,1.287,1.287,0,0,0-.191-.294L9.462,30.151a5.306,5.306,0,0,0,1.986,2.275,6.6,6.6,0,0,0,4.81.607,4.213,4.213,0,0,0,2.716-2.117c.765-1.4.6-3.1.6-5.019.018-3.081,0-6.163,0-9.269l.006-.084Z" transform="matrix(0.946, -0.326, 0.326, 0.946, 528.12, 76.841)" fill="#fb0" opacity="0.4"/>
    <path id="Icon_simple-php" data-name="Icon simple-php" d="M10.515,15.311H9.1l-.773,3.972H9.583a3.042,3.042,0,0,0,1.863-.471,2.5,2.5,0,0,0,.825-1.573,1.72,1.72,0,0,0-.186-1.493,2.117,2.117,0,0,0-1.571-.435ZM18,8.532C8.059,8.532,0,12.771,0,18s8.059,9.469,18,9.469S36,23.229,36,18,27.941,8.532,18,8.532ZM13.11,19.708a3.64,3.64,0,0,1-1.375.826,6.409,6.409,0,0,1-1.927.246H8.035L7.545,23.3H5.478l1.845-9.489H11.3a3.3,3.3,0,0,1,2.616.942,2.95,2.95,0,0,1,.495,2.628,4.135,4.135,0,0,1-1.3,2.325Zm6.036,1.073.815-4.2a1.134,1.134,0,0,0-.1-.976,1.44,1.44,0,0,0-1.031-.261H17.19l-1.056,5.437H14.082l1.845-9.491h2.051l-.49,2.523h1.827a3.558,3.558,0,0,1,2.379.6,1.993,1.993,0,0,1,.395,1.948l-.858,4.416H19.146Zm11.4-3.4a4.173,4.173,0,0,1-.457,1.271,4.284,4.284,0,0,1-.842,1.055,3.66,3.66,0,0,1-1.376.826,6.413,6.413,0,0,1-1.929.246h-1.77l-.49,2.523H21.611l1.845-9.489h3.973a3.3,3.3,0,0,1,2.616.942,2.945,2.945,0,0,1,.5,2.627Zm-3.892-2.073H25.235l-.774,3.972h1.257a3.035,3.035,0,0,0,1.863-.471,2.509,2.509,0,0,0,.826-1.573,1.719,1.719,0,0,0-.187-1.493,2.117,2.117,0,0,0-1.57-.435Z" transform="translate(379 926)" fill="#fb0" opacity="0.4"/>
    <path id="Icon_simple-php-2" data-name="Icon simple-php" d="M10.515,15.311H9.1l-.773,3.972H9.583a3.042,3.042,0,0,0,1.863-.471,2.5,2.5,0,0,0,.825-1.573,1.72,1.72,0,0,0-.186-1.493,2.117,2.117,0,0,0-1.571-.435ZM18,8.532C8.059,8.532,0,12.771,0,18s8.059,9.469,18,9.469S36,23.229,36,18,27.941,8.532,18,8.532ZM13.11,19.708a3.64,3.64,0,0,1-1.375.826,6.409,6.409,0,0,1-1.927.246H8.035L7.545,23.3H5.478l1.845-9.489H11.3a3.3,3.3,0,0,1,2.616.942,2.95,2.95,0,0,1,.495,2.628,4.135,4.135,0,0,1-1.3,2.325Zm6.036,1.073.815-4.2a1.134,1.134,0,0,0-.1-.976,1.44,1.44,0,0,0-1.031-.261H17.19l-1.056,5.437H14.082l1.845-9.491h2.051l-.49,2.523h1.827a3.558,3.558,0,0,1,2.379.6,1.993,1.993,0,0,1,.395,1.948l-.858,4.416H19.146Zm11.4-3.4a4.173,4.173,0,0,1-.457,1.271,4.284,4.284,0,0,1-.842,1.055,3.66,3.66,0,0,1-1.376.826,6.413,6.413,0,0,1-1.929.246h-1.77l-.49,2.523H21.611l1.845-9.489h3.973a3.3,3.3,0,0,1,2.616.942,2.945,2.945,0,0,1,.5,2.627Zm-3.892-2.073H25.235l-.774,3.972h1.257a3.035,3.035,0,0,0,1.863-.471,2.509,2.509,0,0,0,.826-1.573,1.719,1.719,0,0,0-.187-1.493,2.117,2.117,0,0,0-1.57-.435Z" transform="translate(643.049 667.524) rotate(17)" fill="#fb0" opacity="0.4"/>
    <path id="Icon_simple-php-3" data-name="Icon simple-php" d="M10.515,15.311H9.1l-.773,3.972H9.583a3.042,3.042,0,0,0,1.863-.471,2.5,2.5,0,0,0,.825-1.573,1.72,1.72,0,0,0-.186-1.493,2.117,2.117,0,0,0-1.571-.435ZM18,8.532C8.059,8.532,0,12.771,0,18s8.059,9.469,18,9.469S36,23.229,36,18,27.941,8.532,18,8.532ZM13.11,19.708a3.64,3.64,0,0,1-1.375.826,6.409,6.409,0,0,1-1.927.246H8.035L7.545,23.3H5.478l1.845-9.489H11.3a3.3,3.3,0,0,1,2.616.942,2.95,2.95,0,0,1,.495,2.628,4.135,4.135,0,0,1-1.3,2.325Zm6.036,1.073.815-4.2a1.134,1.134,0,0,0-.1-.976,1.44,1.44,0,0,0-1.031-.261H17.19l-1.056,5.437H14.082l1.845-9.491h2.051l-.49,2.523h1.827a3.558,3.558,0,0,1,2.379.6,1.993,1.993,0,0,1,.395,1.948l-.858,4.416H19.146Zm11.4-3.4a4.173,4.173,0,0,1-.457,1.271,4.284,4.284,0,0,1-.842,1.055,3.66,3.66,0,0,1-1.376.826,6.413,6.413,0,0,1-1.929.246h-1.77l-.49,2.523H21.611l1.845-9.489h3.973a3.3,3.3,0,0,1,2.616.942,2.945,2.945,0,0,1,.5,2.627Zm-3.892-2.073H25.235l-.774,3.972h1.257a3.035,3.035,0,0,0,1.863-.471,2.509,2.509,0,0,0,.826-1.573,1.719,1.719,0,0,0-.187-1.493,2.117,2.117,0,0,0-1.57-.435Z" transform="translate(1048.931 868.712) rotate(-26)" fill="#fb0" opacity="0.4"/>
    <path id="Icon_simple-php-4" data-name="Icon simple-php" d="M10.515,15.311H9.1l-.773,3.972H9.583a3.042,3.042,0,0,0,1.863-.471,2.5,2.5,0,0,0,.825-1.573,1.72,1.72,0,0,0-.186-1.493,2.117,2.117,0,0,0-1.571-.435ZM18,8.532C8.059,8.532,0,12.771,0,18s8.059,9.469,18,9.469S36,23.229,36,18,27.941,8.532,18,8.532ZM13.11,19.708a3.64,3.64,0,0,1-1.375.826,6.409,6.409,0,0,1-1.927.246H8.035L7.545,23.3H5.478l1.845-9.489H11.3a3.3,3.3,0,0,1,2.616.942,2.95,2.95,0,0,1,.495,2.628,4.135,4.135,0,0,1-1.3,2.325Zm6.036,1.073.815-4.2a1.134,1.134,0,0,0-.1-.976,1.44,1.44,0,0,0-1.031-.261H17.19l-1.056,5.437H14.082l1.845-9.491h2.051l-.49,2.523h1.827a3.558,3.558,0,0,1,2.379.6,1.993,1.993,0,0,1,.395,1.948l-.858,4.416H19.146Zm11.4-3.4a4.173,4.173,0,0,1-.457,1.271,4.284,4.284,0,0,1-.842,1.055,3.66,3.66,0,0,1-1.376.826,6.413,6.413,0,0,1-1.929.246h-1.77l-.49,2.523H21.611l1.845-9.489h3.973a3.3,3.3,0,0,1,2.616.942,2.945,2.945,0,0,1,.5,2.627Zm-3.892-2.073H25.235l-.774,3.972h1.257a3.035,3.035,0,0,0,1.863-.471,2.509,2.509,0,0,0,.826-1.573,1.719,1.719,0,0,0-.187-1.493,2.117,2.117,0,0,0-1.57-.435Z" transform="translate(873.639 561.383) rotate(2)" fill="#fb0" opacity="0.4"/>
    <path id="Icon_simple-php-5" data-name="Icon simple-php" d="M10.515,15.311H9.1l-.773,3.972H9.583a3.042,3.042,0,0,0,1.863-.471,2.5,2.5,0,0,0,.825-1.573,1.72,1.72,0,0,0-.186-1.493,2.117,2.117,0,0,0-1.571-.435ZM18,8.532C8.059,8.532,0,12.771,0,18s8.059,9.469,18,9.469S36,23.229,36,18,27.941,8.532,18,8.532ZM13.11,19.708a3.64,3.64,0,0,1-1.375.826,6.409,6.409,0,0,1-1.927.246H8.035L7.545,23.3H5.478l1.845-9.489H11.3a3.3,3.3,0,0,1,2.616.942,2.95,2.95,0,0,1,.495,2.628,4.135,4.135,0,0,1-1.3,2.325Zm6.036,1.073.815-4.2a1.134,1.134,0,0,0-.1-.976,1.44,1.44,0,0,0-1.031-.261H17.19l-1.056,5.437H14.082l1.845-9.491h2.051l-.49,2.523h1.827a3.558,3.558,0,0,1,2.379.6,1.993,1.993,0,0,1,.395,1.948l-.858,4.416H19.146Zm11.4-3.4a4.173,4.173,0,0,1-.457,1.271,4.284,4.284,0,0,1-.842,1.055,3.66,3.66,0,0,1-1.376.826,6.413,6.413,0,0,1-1.929.246h-1.77l-.49,2.523H21.611l1.845-9.489h3.973a3.3,3.3,0,0,1,2.616.942,2.945,2.945,0,0,1,.5,2.627Zm-3.892-2.073H25.235l-.774,3.972h1.257a3.035,3.035,0,0,0,1.863-.471,2.509,2.509,0,0,0,.826-1.573,1.719,1.719,0,0,0-.187-1.493,2.117,2.117,0,0,0-1.57-.435Z" transform="translate(1050.67 230.68) rotate(-8)" fill="#fb0" opacity="0.4"/>
    <path id="Icon_simple-php-6" data-name="Icon simple-php" d="M10.515,15.311H9.1l-.773,3.972H9.583a3.042,3.042,0,0,0,1.863-.471,2.5,2.5,0,0,0,.825-1.573,1.72,1.72,0,0,0-.186-1.493,2.117,2.117,0,0,0-1.571-.435ZM18,8.532C8.059,8.532,0,12.771,0,18s8.059,9.469,18,9.469S36,23.229,36,18,27.941,8.532,18,8.532ZM13.11,19.708a3.64,3.64,0,0,1-1.375.826,6.409,6.409,0,0,1-1.927.246H8.035L7.545,23.3H5.478l1.845-9.489H11.3a3.3,3.3,0,0,1,2.616.942,2.95,2.95,0,0,1,.495,2.628,4.135,4.135,0,0,1-1.3,2.325Zm6.036,1.073.815-4.2a1.134,1.134,0,0,0-.1-.976,1.44,1.44,0,0,0-1.031-.261H17.19l-1.056,5.437H14.082l1.845-9.491h2.051l-.49,2.523h1.827a3.558,3.558,0,0,1,2.379.6,1.993,1.993,0,0,1,.395,1.948l-.858,4.416H19.146Zm11.4-3.4a4.173,4.173,0,0,1-.457,1.271,4.284,4.284,0,0,1-.842,1.055,3.66,3.66,0,0,1-1.376.826,6.413,6.413,0,0,1-1.929.246h-1.77l-.49,2.523H21.611l1.845-9.489h3.973a3.3,3.3,0,0,1,2.616.942,2.945,2.945,0,0,1,.5,2.627Zm-3.892-2.073H25.235l-.774,3.972h1.257a3.035,3.035,0,0,0,1.863-.471,2.509,2.509,0,0,0,.826-1.573,1.719,1.719,0,0,0-.187-1.493,2.117,2.117,0,0,0-1.57-.435Z" transform="translate(323.659 283.736) rotate(16)" fill="#fb0" opacity="0.4"/>
    <path id="Icon_simple-php-7" data-name="Icon simple-php" d="M10.515,15.311H9.1l-.773,3.972H9.583a3.042,3.042,0,0,0,1.863-.471,2.5,2.5,0,0,0,.825-1.573,1.72,1.72,0,0,0-.186-1.493,2.117,2.117,0,0,0-1.571-.435ZM18,8.532C8.059,8.532,0,12.771,0,18s8.059,9.469,18,9.469S36,23.229,36,18,27.941,8.532,18,8.532ZM13.11,19.708a3.64,3.64,0,0,1-1.375.826,6.409,6.409,0,0,1-1.927.246H8.035L7.545,23.3H5.478l1.845-9.489H11.3a3.3,3.3,0,0,1,2.616.942,2.95,2.95,0,0,1,.495,2.628,4.135,4.135,0,0,1-1.3,2.325Zm6.036,1.073.815-4.2a1.134,1.134,0,0,0-.1-.976,1.44,1.44,0,0,0-1.031-.261H17.19l-1.056,5.437H14.082l1.845-9.491h2.051l-.49,2.523h1.827a3.558,3.558,0,0,1,2.379.6,1.993,1.993,0,0,1,.395,1.948l-.858,4.416H19.146Zm11.4-3.4a4.173,4.173,0,0,1-.457,1.271,4.284,4.284,0,0,1-.842,1.055,3.66,3.66,0,0,1-1.376.826,6.413,6.413,0,0,1-1.929.246h-1.77l-.49,2.523H21.611l1.845-9.489h3.973a3.3,3.3,0,0,1,2.616.942,2.945,2.945,0,0,1,.5,2.627Zm-3.892-2.073H25.235l-.774,3.972h1.257a3.035,3.035,0,0,0,1.863-.471,2.509,2.509,0,0,0,.826-1.573,1.719,1.719,0,0,0-.187-1.493,2.117,2.117,0,0,0-1.57-.435Z" transform="translate(1788.929 602.242) rotate(-20)" fill="#fb0" opacity="0.4"/>
    <path id="Icon_simple-php-8" data-name="Icon simple-php" d="M10.515,15.311H9.1l-.773,3.972H9.583a3.042,3.042,0,0,0,1.863-.471,2.5,2.5,0,0,0,.825-1.573,1.72,1.72,0,0,0-.186-1.493,2.117,2.117,0,0,0-1.571-.435ZM18,8.532C8.059,8.532,0,12.771,0,18s8.059,9.469,18,9.469S36,23.229,36,18,27.941,8.532,18,8.532ZM13.11,19.708a3.64,3.64,0,0,1-1.375.826,6.409,6.409,0,0,1-1.927.246H8.035L7.545,23.3H5.478l1.845-9.489H11.3a3.3,3.3,0,0,1,2.616.942,2.95,2.95,0,0,1,.495,2.628,4.135,4.135,0,0,1-1.3,2.325Zm6.036,1.073.815-4.2a1.134,1.134,0,0,0-.1-.976,1.44,1.44,0,0,0-1.031-.261H17.19l-1.056,5.437H14.082l1.845-9.491h2.051l-.49,2.523h1.827a3.558,3.558,0,0,1,2.379.6,1.993,1.993,0,0,1,.395,1.948l-.858,4.416H19.146Zm11.4-3.4a4.173,4.173,0,0,1-.457,1.271,4.284,4.284,0,0,1-.842,1.055,3.66,3.66,0,0,1-1.376.826,6.413,6.413,0,0,1-1.929.246h-1.77l-.49,2.523H21.611l1.845-9.489h3.973a3.3,3.3,0,0,1,2.616.942,2.945,2.945,0,0,1,.5,2.627Zm-3.892-2.073H25.235l-.774,3.972h1.257a3.035,3.035,0,0,0,1.863-.471,2.509,2.509,0,0,0,.826-1.573,1.719,1.719,0,0,0-.187-1.493,2.117,2.117,0,0,0-1.57-.435Z" transform="translate(1656.456 1034.001) rotate(135)" fill="#fb0" opacity="0.4"/>
    <path id="Icon_simple-php-9" data-name="Icon simple-php" d="M10.515,15.311H9.1l-.773,3.972H9.583a3.042,3.042,0,0,0,1.863-.471,2.5,2.5,0,0,0,.825-1.573,1.72,1.72,0,0,0-.186-1.493,2.117,2.117,0,0,0-1.571-.435ZM18,8.532C8.059,8.532,0,12.771,0,18s8.059,9.469,18,9.469S36,23.229,36,18,27.941,8.532,18,8.532ZM13.11,19.708a3.64,3.64,0,0,1-1.375.826,6.409,6.409,0,0,1-1.927.246H8.035L7.545,23.3H5.478l1.845-9.489H11.3a3.3,3.3,0,0,1,2.616.942,2.95,2.95,0,0,1,.495,2.628,4.135,4.135,0,0,1-1.3,2.325Zm6.036,1.073.815-4.2a1.134,1.134,0,0,0-.1-.976,1.44,1.44,0,0,0-1.031-.261H17.19l-1.056,5.437H14.082l1.845-9.491h2.051l-.49,2.523h1.827a3.558,3.558,0,0,1,2.379.6,1.993,1.993,0,0,1,.395,1.948l-.858,4.416H19.146Zm11.4-3.4a4.173,4.173,0,0,1-.457,1.271,4.284,4.284,0,0,1-.842,1.055,3.66,3.66,0,0,1-1.376.826,6.413,6.413,0,0,1-1.929.246h-1.77l-.49,2.523H21.611l1.845-9.489h3.973a3.3,3.3,0,0,1,2.616.942,2.945,2.945,0,0,1,.5,2.627Zm-3.892-2.073H25.235l-.774,3.972h1.257a3.035,3.035,0,0,0,1.863-.471,2.509,2.509,0,0,0,.826-1.573,1.719,1.719,0,0,0-.187-1.493,2.117,2.117,0,0,0-1.57-.435Z" transform="translate(764.558 82.656) rotate(28)" fill="#fb0" opacity="0.4"/>
    <path id="Icon_simple-php-10" data-name="Icon simple-php" d="M10.515,15.311H9.1l-.773,3.972H9.583a3.042,3.042,0,0,0,1.863-.471,2.5,2.5,0,0,0,.825-1.573,1.72,1.72,0,0,0-.186-1.493,2.117,2.117,0,0,0-1.571-.435ZM18,8.532C8.059,8.532,0,12.771,0,18s8.059,9.469,18,9.469S36,23.229,36,18,27.941,8.532,18,8.532ZM13.11,19.708a3.64,3.64,0,0,1-1.375.826,6.409,6.409,0,0,1-1.927.246H8.035L7.545,23.3H5.478l1.845-9.489H11.3a3.3,3.3,0,0,1,2.616.942,2.95,2.95,0,0,1,.495,2.628,4.135,4.135,0,0,1-1.3,2.325Zm6.036,1.073.815-4.2a1.134,1.134,0,0,0-.1-.976,1.44,1.44,0,0,0-1.031-.261H17.19l-1.056,5.437H14.082l1.845-9.491h2.051l-.49,2.523h1.827a3.558,3.558,0,0,1,2.379.6,1.993,1.993,0,0,1,.395,1.948l-.858,4.416H19.146Zm11.4-3.4a4.173,4.173,0,0,1-.457,1.271,4.284,4.284,0,0,1-.842,1.055,3.66,3.66,0,0,1-1.376.826,6.413,6.413,0,0,1-1.929.246h-1.77l-.49,2.523H21.611l1.845-9.489h3.973a3.3,3.3,0,0,1,2.616.942,2.945,2.945,0,0,1,.5,2.627Zm-3.892-2.073H25.235l-.774,3.972h1.257a3.035,3.035,0,0,0,1.863-.471,2.509,2.509,0,0,0,.826-1.573,1.719,1.719,0,0,0-.187-1.493,2.117,2.117,0,0,0-1.57-.435Z" transform="translate(1419.931 768.712) rotate(-26)" fill="#fb0" opacity="0.4"/>
  </g>
</svg>
