<svg xmlns="http://www.w3.org/2000/svg" viewBox="0 0 2500 2500"><defs><style>.cls-1{fill:#fc466b;}.cls-2{fill:#f9f9f9;}</style></defs><g id="Camada_2" data-name="Camada 2"><g id="Camada_1-2" data-name="Camada 1"><path class="cls-1" d="M0,0H2500V2500H0Z"/><path class="cls-2" d="M2295.39,1903.75c-18.3-114.06-92.68-209.83-313-299.19-76.52-35.17-161.83-60.36-187.26-118.34-9-33.75-10.22-52.76-4.51-73.2,16.39-66.3,95.53-87,158.27-68,40.4,13.54,78.66,44.68,101.71,94.34,107.89-69.86,107.65-69.39,183-117.39-27.56-42.78-42.3-62.5-60.36-80.8-64.88-72.48-153.28-109.79-294.68-106.94-24.47,3.09-49.19,6.41-73.66,9.51-70.58,17.82-137.84,54.89-177.29,104.56-118.34,134.27-84.6,369.29,59.41,466,141.88,106.46,350.29,130.7,376.91,230.27,25.9,121.91-89.59,161.36-204.38,147.34-84.6-17.59-131.65-60.6-182.51-138.78-93.63,54.18-93.63,54.18-189.87,109.55,22.81,49.9,46.81,72.48,85.08,115.73,181.08,183.7,634.26,174.67,715.54-103.37C2291.11,2065.59,2313,2001.9,2295.39,1903.75ZM1359.08,1149H1125.24c0,202-1,402.57-1,604.56,0,128.57,6.65,246.44-14.26,282.56-34.22,71.05-122.86,62.26-163.26,48.48-41.11-20.2-62-49-86.26-89.59-6.66-11.65-11.65-20.68-13.31-21.39Q752,2031.73,657.08,2090.07c31.61,64.87,78.19,121.19,137.83,157.79C884,2301.33,1003.8,2317.73,1129,2289c81.51-23.76,151.85-72.95,188.69-147.81,53.23-98.15,41.82-217,41.35-348.38,1.19-214.36,0-428.71,0-643.78Z"/></g></g></svg>