<svg xmlns="http://www.w3.org/2000/svg" viewBox="0 0 2194 1953.85"><defs><style>.cls-1{fill:#fc466b;}</style></defs><g id="Camada_2" data-name="Camada 2"><g id="Camada_1-2" data-name="Camada 1"><path class="cls-1" d="M2194,977.15c0-145.34-182-283.08-461.07-368.5,64.4-284.42,35.78-510.71-90.34-583.16-29.07-17-63-25-100.17-25v99.72c20.57,0,37.12,4,51,11.63,60.82,34.88,87.21,167.7,66.63,338.54-4.92,42-13,86.31-22.8,131.48-87.66-21.47-183.36-38-284-48.75-60.37-82.73-123-157.86-186-223.6C1313,174,1449.85,99.73,1542.87,99.73V0c-123,0-284,87.65-446.76,239.7C933.32,88.55,772.33,1.79,649.35,1.79v99.73c92.57,0,229.86,73.79,375.65,208.39A2112.75,2112.75,0,0,0,840.3,533.07c-101.07,10.73-196.77,27.28-284.42,49.19-10.29-44.72-17.89-88.1-23.26-129.69-21-170.83,4.92-303.65,65.3-339,13.41-8,30.85-11.63,51.43-11.63V2.24c-37.57,0-71.56,8-101.07,25-125.67,72.45-153.84,298.29-89,581.82C181.12,695,0,832.25,0,977.15c0,145.34,182,283.08,461.07,368.5-64.4,284.42-35.78,510.71,90.34,583.16,29.07,17,63.05,25,100.62,25,123,0,284-87.65,446.76-239.7,162.78,151.15,323.78,237.91,446.76,237.91,37.56,0,71.55-8,101.07-25,125.66-72.45,153.84-298.29,89-581.82C2012.88,1259.78,2194,1122,2194,977.15ZM1611.74,678.86c-16.55,57.69-37.12,117.17-60.38,176.65C1533,819.73,1513.8,784,1492.78,748.18c-20.57-35.78-42.49-70.66-64.4-104.65,63.5,9.39,124.77,21,183.36,35.33Zm-204.83,476.28c-34.88,60.37-70.65,117.61-107.77,170.83-66.64,5.81-134.16,8.94-202.14,8.94-67.53,0-135.06-3.13-201.24-8.49q-55.68-79.83-108.23-169.94c-34-58.59-64.84-118.06-93-178,27.73-59.93,59-119.85,92.57-178.44C822,739.68,857.74,682.44,894.86,629.22c66.64-5.81,134.16-8.94,202.14-8.94,67.53,0,135.06,3.13,201.24,8.49q55.68,79.83,108.23,169.94c34,58.59,64.84,118.07,93,178-28.18,59.93-59,119.85-92.58,178.44ZM1551.36,1097c24.15,59.93,44.72,119.85,61.72,178-58.59,14.31-120.3,26.38-184.25,35.78,21.91-34.44,43.82-69.77,64.4-106,20.57-35.78,39.8-72,58.13-107.78Zm-453.47,477.17a1841.54,1841.54,0,0,1-124.32-143.11c40.25,1.79,81.39,3.13,123,3.13,42,0,83.63-.89,124.33-3.13A1743.15,1743.15,0,0,1,1097.89,1574.17Zm-332.72-263.4c-63.5-9.4-124.77-21-183.35-35.33,16.54-57.69,37.11-117.17,60.37-176.65,18.34,35.78,37.56,71.55,58.58,107.33S743.26,1276.78,765.17,1310.77Zm330.49-930.64A1843.18,1843.18,0,0,1,1220,523.23c-40.25-1.79-81.39-3.13-123-3.13-42,0-83.63.9-124.32,3.13A1742.64,1742.64,0,0,1,1095.66,380.13ZM764.72,643.53c-21.91,34.44-43.82,69.77-64.39,106-20.58,35.78-39.8,71.55-58.14,107.33C618,796.92,597.47,737,580.47,678.86c58.59-13.86,120.3-25.94,184.25-35.33ZM360,1203.44C201.69,1135.91,99.28,1047.36,99.28,977.15S201.69,817.94,360,750.86c38.46-16.55,80.5-31.3,123.88-45.17,25.49,87.66,59,178.89,100.62,272.35-41.14,93-74.24,183.8-99.28,271C441,1235.19,398.91,1220,360,1203.44Zm240.6,639.05c-60.82-34.88-87.21-167.7-66.63-338.53,4.91-42,13-86.31,22.8-131.48,87.66,21.47,183.36,38,284,48.75,60.37,82.73,123,157.86,186,223.6C881,1780.33,744.15,1854.57,651.13,1854.57c-20.12-.45-37.11-4.47-50.53-12.08Zm1060.78-340.77c21,170.84-4.92,303.66-65.3,339-13.41,8-30.85,11.62-51.43,11.62-92.57,0-229.86-73.79-375.65-208.4a2111.58,2111.58,0,0,0,184.7-223.15c101.07-10.73,196.77-27.28,284.42-49.19C1648.41,1416.75,1656.46,1460.13,1661.38,1501.72Zm172.17-298.28c-38.46,16.54-80.5,31.3-123.88,45.16-25.49-87.65-59-178.88-100.62-272.35,41.15-93,74.24-183.8,99.28-271,44.28,13.86,86.31,29.06,125.67,45.61,158.31,67.53,260.72,156.08,260.72,226.29-.45,70.21-102.86,159.2-261.17,226.29Z"/><circle class="cls-1" cx="1096.55" cy="977.15" r="204.37"/></g></g></svg>