<svg xmlns="http://www.w3.org/2000/svg" viewBox="0 0 2499.78 1873.77"><defs><style>.cls-1{fill:#fc466b;}</style></defs><g id="Camada_2" data-name="Camada 2"><g id="Camada_1-2" data-name="Camada 1"><path class="cls-1" d="M2151.93,1076c-87.4.5-163.08,21.49-226.56,52.74-23.44-46.38-46.88-86.92-50.78-117.18-4.39-35.16-9.76-56.65-4.39-98.64S1900,811.33,1900,806.44c-.49-4.39-5.38-25.88-55.67-26.36s-93.75,9.76-98.63,22.94a560.6,560.6,0,0,0-21,74.71c-8.79,45.9-100.59,208.5-152.84,294-17.09-33.21-31.73-62.5-34.67-86-4.39-35.15-9.76-56.64-4.39-98.62s29.79-101.57,29.79-106.45c-.49-4.39-5.37-25.88-55.66-26.37s-93.75,9.77-98.64,23-10.25,44.44-21,74.71C1377,982.22,1255,1253.71,1223.22,1324.51c-16.11,36.13-30.27,64.94-40.53,84.47s-.48,1.47-1.46,3.42c-8.79,16.6-13.67,25.88-13.67,25.88v.49c-6.84,12.21-14.16,23.92-17.59,23.92-2.44,0-7.32-32.71,1-77.63,18.07-94.24,62-241.21,61.53-246.58,0-2.44,8.29-28.33-28.33-41.51-35.64-13.18-48.33,8.79-51.27,8.79s-5.37,7.82-5.37,7.82,39.55-165.53-75.68-165.53c-72.27,0-171.88,78.62-221.19,150.39-31.25,17.09-97.66,53.22-168,91.8-26.86,14.65-54.69,30.27-81.06,44.43l-5.36-5.86C436.6,1079.88,178.3,974.41,189,774.22c3.91-72.76,29.3-264.65,496.1-497.07,382.32-190.43,688.48-138.19,741.69-22,75.69,166-163.57,474.61-561,519.05-151.36,17.09-231-41.51-251-63.48-21-23-23.93-23.93-31.74-19.53-12.7,6.83-4.88,27.34,0,39.55,11.72,30.76,60.55,85.45,143.55,112.79,72.75,23.93,250.49,37.11,465.34-45.9,240.72-93.26,428.71-352,373.53-568.36C1509.36,9.08,1144.12-63.19,798.91,59.37c-205.57,73.24-428.23,187.5-588.38,337.4C20.1,574.51-10.18,729.78,2.52,794.24,47,1024.22,363.85,1174.12,490.8,1285c-6.35,3.41-12.21,6.83-17.58,9.76-63.48,31.25-305.17,157.72-365.72,291.5-68.36,151.37,10.74,260.26,63.47,274.91,163.09,45.41,330.08-36.13,420.42-170.41,89.83-134.28,79.1-308.59,37.59-388.18l-1.47-2.93,49.81-29.3c32.23-19,64-36.62,91.79-51.76-15.62,42.48-26.85,92.77-32.71,166-6.83,85.94,28.32,197.27,74.71,241.21,20.51,19,44.92,19.53,60.06,19.53,53.71,0,78.13-44.43,105-97.65,33.2-64.94,62.5-140.14,62.5-140.14s-36.62,203.61,63.48,203.61c36.62,0,73.24-47.36,89.84-71.77v.49s1-1.47,2.93-4.89q3.07-4.54,5.86-9.27v-1c14.65-25.39,47.36-83.49,96.19-179.68,63-124,123.54-279.3,123.54-279.3s5.86,38.09,23.92,100.59c10.74,37.11,34.18,77.63,52.24,117.18-14.64,20.51-23.43,32.23-23.43,32.23l.48.49c-11.71,15.63-24.9,32.23-38.56,48.83-49.81,59.57-109.38,127.45-117.19,147-9.28,22.94-7.33,40,10.74,53.71,13.18,9.77,36.62,11.71,61.52,9.77,44.93-2.94,76.18-14.16,91.8-21a317.61,317.61,0,0,0,79.1-41.5c48.83-36.13,78.62-87.4,75.69-155.76-1.47-37.59-13.68-74.7-28.81-109.86,4.39-6.35,8.79-12.7,13.18-19.53C1698.32,1115,1757.89,991,1757.89,991s5.86,38.09,23.93,100.59c9.27,31.74,27.83,66.41,44.43,100.59-72.27,59.08-117.68,127.44-133.3,172.36-28.81,83-6.35,120.61,36.13,129.4,19,3.9,46.39-4.89,66.89-13.67a303.5,303.5,0,0,0,84.48-43.46c48.83-36.13,95.7-86.43,93.26-154.3-1.47-31.25-9.77-62-21-91.31,61.53-25.39,141.11-40,242.19-27.83,217.29,25.39,260.25,161.13,252,217.77s-53.71,87.9-68.85,97.66c-15.14,9.28-20,12.7-18.56,19.53,2,10.26,8.79,9.77,22,7.82,18.07-2.94,114.26-46.39,118.17-150.87C2505.45,1221,2378,1074.51,2151.93,1076ZM476.15,1640.91c-71.78,78.62-172.85,108.4-215.82,83-46.39-26.85-28.32-142.58,60.06-226.07,53.71-50.78,123.53-97.66,169.43-126.47,10.26-6.34,25.88-15.62,44.44-26.85a51.9,51.9,0,0,1,4.88-2.93c3.42-1.95,7.32-4.4,11.23-6.84,32.71,119.14,1.46,223.64-74.22,306.16ZM1001.05,1284c-24.9,61-77.63,217.77-109.37,209-27.35-7.33-43.95-126-5.38-243.17,19.53-59.09,61-129.39,85.45-156.74,39.56-44,82.52-58.6,93.27-40.53C1077.71,1076,1016.68,1245.9,1001.05,1284Zm433.11,207c-10.74,5.38-20.51,9.28-24.9,6.36-3.42-2,4.39-9.28,4.39-9.28s54.19-58.11,75.68-85c12.21-15.62,26.85-33.69,42.48-54.2v5.86c0,70.3-67.38,117.18-97.65,136.22Zm334-76.17c-7.81-5.86-6.83-23.93,19.53-80.57,10.26-22.46,33.69-60,74.22-95.7,4.88,14.65,7.82,28.8,7.32,42C1868.73,1368.45,1806.23,1401.17,1768.14,1414.84Z"/></g></g></svg>